<svg width="15" height="15" viewBox="0 0 15 15" fill="none" xmlns="http://www.w3.org/2000/svg">
<path d="M14.8109 2.07153V12.9515C14.8109 13.7709 14.1466 14.4351 13.3272 14.4351H2.44726C1.62786 14.4351 0.963623 13.7709 0.963623 12.9515V2.07153C0.963623 1.25213 1.62786 0.587891 2.44726 0.587891H13.3272C14.1466 0.587891 14.8109 1.25213 14.8109 2.07153ZM12.0909 2.56607H8.62997C7.9712 2.56607 7.6384 3.36541 8.10541 3.83244L9.094 4.82113L3.05045 10.8647C2.90561 11.0095 2.90561 11.2444 3.05045 11.3892L4.00953 12.3483C4.1544 12.4932 4.38924 12.4932 4.53408 12.3483L10.5776 6.3048L11.5663 7.29361C12.0309 7.75808 12.8327 7.43193 12.8327 6.76905V3.30789C12.8327 2.89819 12.5006 2.56607 12.0909 2.56607Z" fill="#9CA0AC"/>
</svg>
