<svg width="15" height="15" viewBox="0 0 15 15" fill="none" xmlns="http://www.w3.org/2000/svg">
<g clip-path="url(#clip0_10_2554)">
<path d="M14.3594 10.9773H2.67579V2.75548C2.67579 2.5164 2.48215 2.32275 2.24307 2.32275H1.37761C1.13853 2.32275 0.944885 2.5164 0.944885 2.75548V11.8427C0.944885 12.3206 1.33245 12.7082 1.81034 12.7082H14.3594C14.5985 12.7082 14.7921 12.5146 14.7921 12.2755V11.41C14.7921 11.1709 14.5985 10.9773 14.3594 10.9773ZM13.494 3.18821H10.301C9.72275 3.18821 9.43309 3.88733 9.84202 4.29626L10.7183 5.17253L8.73397 7.15712L6.74964 5.1728C6.41158 4.83473 5.86364 4.83473 5.52584 5.1728L3.66809 7.03055C3.49906 7.19959 3.49906 7.47356 3.66809 7.64259L4.27986 8.25436C4.44889 8.42339 4.72286 8.42339 4.89189 8.25436L6.13761 7.00837L8.12193 8.9927C8.46 9.33076 9.00794 9.33076 9.34573 8.9927L11.9421 6.39634L12.8184 7.27261C13.2273 7.68153 13.9264 7.39188 13.9264 6.81365V3.62093C13.9267 3.38185 13.733 3.18821 13.494 3.18821Z" fill="#9CA0AC"/>
</g>
<defs>
<clipPath id="clip0_10_2554">
<rect width="13.8473" height="13.8473" fill="white" transform="translate(0.945251 0.587891)"/>
</clipPath>
</defs>
</svg>
