<svg width="18" height="18" viewBox="0 0 18 18" fill="none" xmlns="http://www.w3.org/2000/svg">
<g clip-path="url(#clip0_607_32)">
<path d="M12.6419 0.582031L5.79778 0.582031C3.01629 0.582031 0.753387 2.84493 0.753387 5.62642L0.753387 12.4705C0.753387 15.252 3.01629 17.5149 5.79778 17.5149L12.6419 17.5149C15.4233 17.5149 17.6862 15.252 17.6862 12.4705L17.6862 5.62642C17.6862 2.84493 15.4233 0.582031 12.6419 0.582031ZM15.9828 12.4705C15.9828 14.3156 14.487 15.8114 12.6419 15.8114H5.79778C3.95264 15.8114 2.45683 14.3156 2.45683 12.4705L2.45683 5.62642C2.45683 3.78125 3.95264 2.28548 5.79778 2.28548L12.6419 2.28548C14.487 2.28548 15.9828 3.78125 15.9828 5.62642V12.4705Z" fill="white"/>
<path d="M9.22284 4.66846C6.80801 4.66846 4.8434 6.63307 4.8434 9.04787C4.8434 11.4627 6.80801 13.4273 9.22284 13.4273C11.6377 13.4273 13.6023 11.4627 13.6023 9.04787C13.6023 6.63304 11.6377 4.66846 9.22284 4.66846ZM9.22284 11.7239C7.74492 11.7239 6.54684 10.5258 6.54684 9.0479C6.54684 7.56997 7.74495 6.3719 9.22284 6.3719C10.7008 6.3719 11.8988 7.56997 11.8988 9.0479C11.8988 10.5258 10.7007 11.7239 9.22284 11.7239Z" fill="white"/>
<path d="M13.6064 5.75017C14.1859 5.75017 14.6558 5.28034 14.6558 4.70077C14.6558 4.1212 14.1859 3.65137 13.6064 3.65137C13.0268 3.65137 12.557 4.1212 12.557 4.70077C12.557 5.28034 13.0268 5.75017 13.6064 5.75017Z" fill="white"/>
</g>
<defs>
<clipPath id="clip0_607_32">
<rect width="16.9329" height="16.9329" fill="white" transform="translate(0.753754 0.582031)"/>
</clipPath>
</defs>
</svg>
