<svg width="14" height="13" viewBox="0 0 14 13" fill="none" xmlns="http://www.w3.org/2000/svg">
<g clip-path="url(#clip0_10_2729)">
<path d="M4.69132 6.91714H5.60391L5.14761 5.48361L4.69132 6.91714ZM9.49329 6.48616C9.16662 6.48616 8.9007 6.77626 8.9007 7.13263C8.9007 7.48899 9.16662 7.77909 9.49329 7.77909C9.81995 7.77909 10.0859 7.48899 10.0859 7.13263C10.0859 6.77626 9.81995 6.48616 9.49329 6.48616ZM12.2587 1.31445H1.98712C1.3328 1.31445 0.801941 1.89358 0.801941 2.60738V10.3649C0.801941 11.0788 1.3328 11.6579 1.98712 11.6579H12.2587C12.913 11.6579 13.4439 11.0788 13.4439 10.3649V2.60738C13.4439 1.89358 12.913 1.31445 12.2587 1.31445ZM6.98909 9.07202H6.57082C6.40267 9.07202 6.2528 8.95566 6.19749 8.78246L6.01551 8.21007H4.27996L4.09774 8.78246C4.0708 8.86705 4.02038 8.9404 3.95347 8.99229C3.88656 9.04418 3.8065 9.07205 3.72441 9.07202H3.30613C3.03428 9.07202 2.84367 8.77976 2.9328 8.49963L4.25873 4.33452C4.29912 4.20768 4.37473 4.09771 4.47504 4.0199C4.57535 3.94208 4.69539 3.90029 4.81848 3.90031H5.47675C5.59987 3.90029 5.71994 3.94212 5.82026 4.01998C5.92058 4.09785 5.99616 4.20789 6.0365 4.33479L7.36218 8.49963C7.45131 8.77976 7.2607 9.07202 6.98909 9.07202ZM11.2711 8.64104C11.2711 8.87916 11.0943 9.07202 10.876 9.07202H10.4809C10.3612 9.07202 10.2577 9.01087 10.1851 8.91902C9.9723 9.01761 9.73847 9.07202 9.49329 9.07202C8.51304 9.07202 7.71551 8.20199 7.71551 7.13263C7.71551 6.06327 8.51304 5.19324 9.49329 5.19324C9.70218 5.19324 9.89971 5.23984 10.0859 5.31229V4.33128C10.0859 4.09317 10.2627 3.90031 10.4809 3.90031H10.876C11.0943 3.90031 11.2711 4.09317 11.2711 4.33128V8.64104Z" fill="#9CA0AC"/>
</g>
<defs>
<clipPath id="clip0_10_2729">
<rect width="12.642" height="12.642" fill="white" transform="translate(0.802307 0.166016)"/>
</clipPath>
</defs>
</svg>
