<svg width="14" height="13" viewBox="0 0 14 13" fill="none" xmlns="http://www.w3.org/2000/svg">
<g clip-path="url(#clip0_10_2709)">
<path d="M12.2591 0.241211C12.9136 0.241211 13.4443 0.771828 13.4443 1.42639V8.5375C13.4443 9.19206 12.9136 9.72268 12.2591 9.72268H5.14798C4.49341 9.72268 3.9628 9.19206 3.9628 8.5375V1.42639C3.9628 0.771828 4.49341 0.241211 5.14798 0.241211H12.2591ZM5.14798 10.5128C4.0588 10.5128 3.17267 9.62668 3.17267 8.5375V3.4017H1.98749C1.33292 3.4017 0.802307 3.93232 0.802307 4.58688V11.698C0.802307 12.3526 1.33292 12.8832 1.98749 12.8832H9.09859C9.75316 12.8832 10.2838 12.3526 10.2838 11.698V10.5128H5.14798Z" fill="#9CA0AC"/>
</g>
<defs>
<clipPath id="clip0_10_2709">
<rect width="12.642" height="12.642" fill="white" transform="translate(0.802307 0.241211)"/>
</clipPath>
</defs>
</svg>
