<svg width="14" height="13" viewBox="0 0 14 13" fill="none" xmlns="http://www.w3.org/2000/svg">
<g clip-path="url(#clip0_10_2705)">
<path d="M12.6796 9.9315H2.6796V2.42533C2.6796 2.20706 2.51386 2.03027 2.30923 2.03027H1.56849C1.36386 2.03027 1.19812 2.20706 1.19812 2.42533V10.7216C1.19812 11.1579 1.52983 11.5117 1.93886 11.5117H12.6796C12.8842 11.5117 13.05 11.335 13.05 11.1167V10.3266C13.05 10.1083 12.8842 9.9315 12.6796 9.9315ZM11.9388 2.8204H9.20598C8.71107 2.8204 8.46316 3.45867 8.81316 3.832L9.56316 4.632L7.86478 6.44385L6.1664 4.63225C5.87705 4.3236 5.40807 4.3236 5.11895 4.63225L3.5289 6.32829C3.38423 6.48261 3.38423 6.73274 3.5289 6.88706L4.05251 7.44558C4.19719 7.5999 4.43168 7.5999 4.57636 7.44558L5.64256 6.30805L7.34094 8.11965C7.63029 8.42829 8.09927 8.42829 8.38839 8.11965L10.6106 5.74928L11.3606 6.54928C11.7106 6.92261 12.309 6.65817 12.309 6.13027V3.21546C12.3092 2.99719 12.1435 2.8204 11.9388 2.8204Z" fill="#9CA0AC"/>
</g>
<defs>
<clipPath id="clip0_10_2705">
<rect width="12.642" height="12.642" fill="white" transform="translate(0.802307 0.0556641)"/>
</clipPath>
</defs>
</svg>
