<svg width="14" height="14" viewBox="0 0 14 14" fill="none" xmlns="http://www.w3.org/2000/svg">
<g clip-path="url(#clip0_10_2717)">
<path d="M11.3369 10.8814V11.2764C11.3369 11.931 10.8652 12.4616 10.2834 12.4616H1.85544C1.2736 12.4616 0.801941 11.931 0.801941 11.2764V4.95545C0.801941 4.30089 1.2736 3.77027 1.85544 3.77027H2.2066V8.90607C2.2066 9.99525 2.99427 10.8814 3.96243 10.8814H11.3369ZM13.4439 8.90607V2.58509C13.4439 1.93052 12.9722 1.3999 12.3904 1.3999H3.96243C3.38059 1.3999 2.90893 1.93052 2.90893 2.58509V8.90607C2.90893 9.56063 3.38059 10.0912 3.96243 10.0912H12.3904C12.9722 10.0912 13.4439 9.56063 13.4439 8.90607ZM6.42059 3.77027C6.42059 4.42484 5.94893 4.95545 5.36709 4.95545C4.78526 4.95545 4.3136 4.42484 4.3136 3.77027C4.3136 3.1157 4.78526 2.58509 5.36709 2.58509C5.94893 2.58509 6.42059 3.1157 6.42059 3.77027ZM4.3136 7.32582L5.53203 5.95508C5.63488 5.83938 5.80164 5.83938 5.90451 5.95508L6.77175 6.93076L9.74602 3.58471C9.84886 3.46901 10.0156 3.46901 10.1185 3.58471L12.0392 5.74558V8.511H4.3136V7.32582Z" fill="#9CA0AC"/>
</g>
<defs>
<clipPath id="clip0_10_2717">
<rect width="12.642" height="12.642" fill="white" transform="translate(0.802307 0.61084)"/>
</clipPath>
</defs>
</svg>
