<svg width="14" height="14" viewBox="0 0 14 14" fill="none" xmlns="http://www.w3.org/2000/svg">
<g clip-path="url(#clip0_10_2721)">
<path d="M8.90122 7.11615C8.90122 8.09887 8.10616 8.89393 7.12345 8.89393C6.14073 8.89393 5.34567 8.09887 5.34567 7.11615C5.34567 6.13344 6.14073 5.33838 7.12345 5.33838C8.10616 5.33838 8.90122 6.13344 8.90122 7.11615ZM11.4691 5.33838C10.4864 5.33838 9.69135 6.13344 9.69135 7.11615C9.69135 8.09887 10.4864 8.89393 11.4691 8.89393C12.4518 8.89393 13.2469 8.09887 13.2469 7.11615C13.2469 6.13344 12.4518 5.33838 11.4691 5.33838ZM2.77778 5.33838C1.79506 5.33838 1 6.13344 1 7.11615C1 8.09887 1.79506 8.89393 2.77778 8.89393C3.76049 8.89393 4.55555 8.09887 4.55555 7.11615C4.55555 6.13344 3.76049 5.33838 2.77778 5.33838Z" fill="#9CA0AC"/>
</g>
<defs>
<clipPath id="clip0_10_2721">
<rect width="12.642" height="12.642" fill="white" transform="translate(0.802307 0.795898)"/>
</clipPath>
</defs>
</svg>
