<svg width="14" height="13" viewBox="0 0 14 13" fill="none" xmlns="http://www.w3.org/2000/svg">
<g clip-path="url(#clip0_10_2739)">
<path d="M12.8764 9.73859L7.33143 12.1539C7.26603 12.1784 7.19561 12.1911 7.12445 12.1911C7.05328 12.1911 6.98286 12.1784 6.91746 12.1539L1.37221 9.73859C1.25934 9.6892 1.25934 9.60821 1.37221 9.55859L2.70018 8.9813C2.76568 8.95675 2.83619 8.94409 2.90745 8.94409C2.97871 8.94409 3.04922 8.95675 3.11472 8.9813L6.91746 10.6356C6.98282 10.6603 7.05326 10.673 7.12445 10.673C7.19563 10.673 7.26607 10.6603 7.33143 10.6356L11.1342 8.9813C11.1996 8.95674 11.2701 8.94407 11.3413 8.94407C11.4125 8.94407 11.483 8.95674 11.5484 8.9813L12.8764 9.55982C12.9907 9.60821 12.9907 9.6892 12.8764 9.73859ZM12.8764 6.36748L11.5484 5.78896C11.483 5.7644 11.4125 5.75173 11.3413 5.75173C11.2701 5.75173 11.1996 5.7644 11.1342 5.78896L7.33143 7.44525C7.266 7.4697 7.19559 7.4823 7.12445 7.4823C7.0533 7.4823 6.98289 7.4697 6.91746 7.44525L3.11472 5.78896C3.04922 5.76441 2.97871 5.75174 2.90745 5.75174C2.83619 5.75174 2.76568 5.76441 2.70018 5.78896L1.37221 6.36748C1.25934 6.41686 1.25934 6.4981 1.37221 6.54797L6.91746 8.96278C6.98286 8.98734 7.05328 9 7.12445 9C7.19561 9 7.26603 8.98734 7.33143 8.96278L12.8764 6.54797C12.9907 6.4981 12.9907 6.41711 12.8764 6.36748ZM1.37221 3.55958L6.91718 5.78896C7.05023 5.83464 7.1981 5.83464 7.33115 5.78896L12.8764 3.55958C12.9893 3.51365 12.9893 3.43884 12.8764 3.39316L7.33115 1.16403C7.1982 1.11785 7.05012 1.11785 6.91718 1.16403L1.37221 3.39316C1.25793 3.43884 1.25793 3.51365 1.37221 3.55958Z" fill="#9CA0AC"/>
</g>
<defs>
<clipPath id="clip0_10_2739">
<rect width="12.642" height="12.642" fill="white" transform="translate(0.802307 0.338867)"/>
</clipPath>
</defs>
</svg>
