<svg width="14" height="15" viewBox="0 0 14 15" fill="none" xmlns="http://www.w3.org/2000/svg">
<g clip-path="url(#clip0_10_2536)">
<path d="M13.7633 7.11964C12.4596 4.25796 9.87866 2.32178 6.92337 2.32178C3.96809 2.32178 1.38639 4.25931 0.0834032 7.11991C0.0284089 7.24229 -0.000244141 7.3775 -0.000244141 7.51463C-0.000244141 7.65177 0.0284089 7.78698 0.0834032 7.90936C1.38711 10.771 3.96809 12.7072 6.92337 12.7072C9.87866 12.7072 12.4604 10.7697 13.7633 7.90909C13.8183 7.78671 13.847 7.6515 13.847 7.51436C13.847 7.37723 13.8183 7.24202 13.7633 7.11964ZM6.92337 11.409C6.23869 11.409 5.56938 11.1806 5.00009 10.7527C4.4308 10.3248 3.98709 9.71651 3.72507 9.00488C3.46306 8.29324 3.3945 7.51018 3.52808 6.75471C3.66165 5.99924 3.99136 5.3053 4.4755 4.76064C4.95964 4.21598 5.57648 3.84506 6.24801 3.69479C6.91953 3.54452 7.61559 3.62164 8.24815 3.91641C8.88072 4.21118 9.42138 4.71035 9.80177 5.35081C10.1822 5.99126 10.3852 6.74423 10.3852 7.5145C10.3854 8.02601 10.296 8.53255 10.1221 9.00517C9.94823 9.47779 9.69324 9.90722 9.37174 10.2689C9.05024 10.6306 8.66852 10.9175 8.24841 11.1131C7.82831 11.3087 7.37805 11.4093 6.92337 11.409ZM6.92337 4.91814C6.71738 4.92138 6.51271 4.95585 6.31491 5.02064C6.47796 5.26991 6.5562 5.57666 6.53545 5.88527C6.5147 6.19387 6.39632 6.48389 6.2018 6.70273C6.00728 6.92157 5.74948 7.05474 5.47517 7.07808C5.20085 7.10143 4.92818 7.01341 4.70661 6.82998C4.58044 7.35293 4.60321 7.90722 4.77173 8.41484C4.94025 8.92246 5.24602 9.35785 5.64601 9.65973C6.04601 9.96161 6.52008 10.1148 7.0015 10.0977C7.48292 10.0806 7.94745 9.89403 8.32971 9.56436C8.71196 9.23468 8.9927 8.77844 9.1324 8.25987C9.2721 7.74129 9.26374 7.18649 9.10848 6.67354C8.95322 6.1606 8.65888 5.71534 8.2669 5.40044C7.87492 5.08554 7.40503 4.91686 6.92337 4.91814Z" fill="#0066FF"/>
</g>
<defs>
<clipPath id="clip0_10_2536">
<rect width="13.8473" height="13.8473" fill="white" transform="translate(0 0.587891)"/>
</clipPath>
</defs>
</svg>
