<svg width="14" height="15" viewBox="0 0 14 15" fill="none" xmlns="http://www.w3.org/2000/svg">
<path d="M12.5342 8.49157C12.6592 7.8428 12.6592 7.18023 12.5342 6.53147L13.7744 5.84589C13.9186 5.76767 13.9811 5.60663 13.933 5.4548C13.6109 4.46094 13.0581 3.55911 12.3371 2.81372C12.2265 2.6987 12.0487 2.67109 11.9045 2.74931L10.6643 3.43488C10.1403 3.00697 9.53943 2.67569 8.89049 2.45483V1.08369C8.89049 0.927246 8.77512 0.789209 8.61649 0.757001C7.54453 0.526943 6.45334 0.536145 5.43426 0.757001C5.27563 0.789209 5.16026 0.927246 5.16026 1.08369V2.45483C4.51132 2.67569 3.91044 3.00697 3.38648 3.43488L2.14628 2.74931C2.00688 2.67109 1.82421 2.6987 1.71365 2.81372C0.992601 3.55911 0.439799 4.46094 0.11773 5.4548C0.0696604 5.60663 0.136958 5.76767 0.27636 5.84589L1.51656 6.53147C1.39158 7.18023 1.39158 7.8428 1.51656 8.49157L0.27636 9.17714C0.132151 9.25536 0.0696604 9.4164 0.11773 9.56824C0.439799 10.5621 0.992601 11.4593 1.71365 12.2093C1.82421 12.3243 2.00207 12.352 2.14628 12.2737L3.38648 11.5882C3.91044 12.0161 4.51132 12.3473 5.16026 12.5682V13.9394C5.16026 14.0958 5.27563 14.2338 5.43426 14.266C6.50622 14.4961 7.59741 14.4869 8.61649 14.266C8.77512 14.2338 8.89049 14.0958 8.89049 13.9394V12.5682C9.53943 12.3473 10.1403 12.0161 10.6643 11.5882L11.9045 12.2737C12.0439 12.352 12.2265 12.3243 12.3371 12.2093C13.0581 11.4639 13.6109 10.5621 13.933 9.56824C13.9811 9.4164 13.9138 9.25536 13.7744 9.17714L12.5342 8.49157ZM7.03018 9.74309C5.74191 9.74309 4.69879 8.74003 4.69879 7.51152C4.69879 6.28301 5.74672 5.27995 7.03018 5.27995C8.31365 5.27995 9.36157 6.28301 9.36157 7.51152C9.36157 8.74003 8.31845 9.74309 7.03018 9.74309Z" fill="#9CA0AC"/>
</svg>
