<svg width="14" height="15" viewBox="0 0 14 15" fill="none" xmlns="http://www.w3.org/2000/svg">
<path d="M13.6544 7.51152C13.6544 11.3353 10.6515 14.4351 6.94713 14.4351C3.2428 14.4351 0.239868 11.3353 0.239868 7.51152C0.239868 3.68769 3.2428 0.587891 6.94713 0.587891C10.6515 0.587891 13.6544 3.68769 13.6544 7.51152ZM6.17131 11.1775L11.1477 6.04064C11.3166 5.86621 11.3166 5.58337 11.1477 5.40894L10.5357 4.77724C10.3667 4.60279 10.0927 4.60279 9.92373 4.77724L5.86532 8.96654L3.97054 7.01064C3.80156 6.83621 3.52756 6.83621 3.35856 7.01064L2.7466 7.64234C2.57762 7.81677 2.57762 8.09961 2.7466 8.27404L5.55932 11.1775C5.72833 11.352 6.0023 11.352 6.17131 11.1775Z" fill="#9CA0AC"/>
</svg>
