<svg width="100" height="51" viewBox="0 0 100 51" fill="none" xmlns="http://www.w3.org/2000/svg">
<path d="M0 0.511719H95C97.7614 0.511719 100 2.7503 100 5.51172V45.5117C100 48.2731 97.7614 50.5117 95 50.5117H0V0.511719Z" fill="#0066FF"/>
<path d="M22.5298 27.7212C22.5298 27.5308 22.5005 27.3599 22.4419 27.2085C22.3882 27.0522 22.2856 26.9106 22.1343 26.7837C21.9829 26.6519 21.7705 26.5225 21.4971 26.3955C21.2236 26.2686 20.8696 26.1367 20.4351 26C19.9517 25.8438 19.4927 25.668 19.0581 25.4727C18.6284 25.2773 18.2476 25.0503 17.9155 24.7915C17.5884 24.5278 17.3296 24.2227 17.1392 23.876C16.9536 23.5293 16.8608 23.1265 16.8608 22.6675C16.8608 22.2231 16.9585 21.8203 17.1538 21.459C17.3491 21.0928 17.6226 20.7803 17.9741 20.5215C18.3257 20.2578 18.7407 20.0552 19.2192 19.9136C19.7026 19.772 20.2324 19.7012 20.8086 19.7012C21.5947 19.7012 22.2808 19.8428 22.8667 20.126C23.4526 20.4092 23.9067 20.7974 24.229 21.2905C24.5562 21.7837 24.7197 22.3477 24.7197 22.9824H22.5371C22.5371 22.6699 22.4712 22.3965 22.3394 22.1621C22.2124 21.9229 22.0171 21.7349 21.7534 21.5981C21.4946 21.4614 21.1675 21.3931 20.772 21.3931C20.3911 21.3931 20.0737 21.4517 19.8198 21.5688C19.5659 21.6812 19.3755 21.835 19.2485 22.0303C19.1216 22.2207 19.0581 22.4355 19.0581 22.6748C19.0581 22.8555 19.1021 23.019 19.1899 23.1655C19.2827 23.312 19.4194 23.4487 19.6001 23.5757C19.7808 23.7026 20.0029 23.8223 20.2666 23.9346C20.5303 24.0469 20.8354 24.1567 21.1821 24.2642C21.7632 24.4399 22.2734 24.6377 22.7129 24.8574C23.1572 25.0771 23.5283 25.3237 23.8262 25.5972C24.124 25.8706 24.3486 26.1807 24.5 26.5273C24.6514 26.874 24.7271 27.2671 24.7271 27.7065C24.7271 28.1704 24.6367 28.5854 24.4561 28.9517C24.2754 29.3179 24.0142 29.6279 23.6724 29.8818C23.3306 30.1357 22.9229 30.3286 22.4492 30.4604C21.9756 30.5923 21.4458 30.6582 20.8599 30.6582C20.3325 30.6582 19.8125 30.5898 19.2998 30.4531C18.7871 30.3115 18.3208 30.0991 17.9009 29.8159C17.4858 29.5327 17.1538 29.1714 16.9048 28.7319C16.6558 28.2925 16.5312 27.7725 16.5312 27.1719H18.7358C18.7358 27.5039 18.7871 27.7847 18.8896 28.0142C18.9922 28.2437 19.1362 28.4292 19.3218 28.5708C19.5122 28.7124 19.7368 28.8149 19.9956 28.8784C20.2593 28.9419 20.5474 28.9736 20.8599 28.9736C21.2407 28.9736 21.5532 28.9199 21.7974 28.8125C22.0464 28.7051 22.2295 28.5562 22.3467 28.3657C22.4688 28.1753 22.5298 27.9604 22.5298 27.7212ZM29.7368 30.6582C29.1216 30.6582 28.5698 30.5605 28.0815 30.3652C27.5933 30.165 27.1782 29.8892 26.8364 29.5376C26.4995 29.186 26.2407 28.7783 26.0601 28.3145C25.8794 27.8457 25.7891 27.3477 25.7891 26.8203V26.5273C25.7891 25.9268 25.8745 25.3774 26.0454 24.8794C26.2163 24.3813 26.4604 23.9492 26.7778 23.583C27.1001 23.2168 27.4907 22.936 27.9497 22.7407C28.4087 22.5405 28.9263 22.4404 29.5024 22.4404C30.064 22.4404 30.562 22.5332 30.9966 22.7188C31.4312 22.9043 31.7949 23.168 32.0879 23.5098C32.3857 23.8516 32.6104 24.2617 32.7617 24.7402C32.9131 25.2139 32.9888 25.7412 32.9888 26.3223V27.2012H26.6899V25.7949H30.916V25.6338C30.916 25.3408 30.8623 25.0796 30.7549 24.8501C30.6523 24.6157 30.4961 24.4302 30.2861 24.2935C30.0762 24.1567 29.8076 24.0884 29.4805 24.0884C29.2021 24.0884 28.9629 24.1494 28.7627 24.2715C28.5625 24.3936 28.3989 24.5645 28.272 24.7842C28.1499 25.0039 28.0571 25.2627 27.9937 25.5605C27.9351 25.8535 27.9058 26.1758 27.9058 26.5273V26.8203C27.9058 27.1377 27.9497 27.4307 28.0376 27.6992C28.1304 27.9678 28.2598 28.1997 28.4258 28.395C28.5967 28.5903 28.8018 28.7417 29.041 28.8491C29.2852 28.9565 29.561 29.0103 29.8687 29.0103C30.2495 29.0103 30.6035 28.937 30.9307 28.7905C31.2627 28.6392 31.5483 28.4121 31.7876 28.1094L32.813 29.2227C32.647 29.4619 32.4199 29.6914 32.1318 29.9111C31.8486 30.1309 31.5068 30.3115 31.1064 30.4531C30.7061 30.5898 30.2495 30.6582 29.7368 30.6582ZM38.4673 28.7246V25.1943C38.4673 24.9404 38.4258 24.7231 38.3428 24.5425C38.2598 24.3569 38.1304 24.2129 37.9546 24.1104C37.7837 24.0078 37.5615 23.9565 37.2881 23.9565C37.0537 23.9565 36.8511 23.998 36.6802 24.0811C36.5093 24.1592 36.3774 24.2739 36.2847 24.4253C36.1919 24.5718 36.1455 24.7451 36.1455 24.9453H34.0361C34.0361 24.6084 34.1143 24.2886 34.2705 23.9858C34.4268 23.6831 34.6538 23.417 34.9517 23.1875C35.2495 22.9531 35.6035 22.77 36.0137 22.6382C36.4287 22.5063 36.8926 22.4404 37.4053 22.4404C38.0205 22.4404 38.5674 22.543 39.0459 22.748C39.5244 22.9531 39.9004 23.2607 40.1738 23.6709C40.4521 24.0811 40.5913 24.5938 40.5913 25.209V28.6001C40.5913 29.0347 40.6182 29.3911 40.6719 29.6694C40.7256 29.9429 40.8037 30.1821 40.9062 30.3872V30.5117H38.7749C38.6724 30.2969 38.5942 30.0283 38.5405 29.7061C38.4917 29.3789 38.4673 29.0518 38.4673 28.7246ZM38.7456 25.6851L38.7603 26.8789H37.5811C37.3027 26.8789 37.061 26.9106 36.856 26.9741C36.6509 27.0376 36.4824 27.1279 36.3506 27.2451C36.2188 27.3574 36.1211 27.4893 36.0576 27.6406C35.999 27.792 35.9697 27.958 35.9697 28.1387C35.9697 28.3193 36.0112 28.4829 36.0942 28.6294C36.1772 28.771 36.2969 28.8833 36.4531 28.9663C36.6094 29.0444 36.7925 29.0835 37.0024 29.0835C37.3198 29.0835 37.5957 29.02 37.8301 28.8931C38.0645 28.7661 38.2451 28.6099 38.3721 28.4243C38.5039 28.2388 38.5723 28.063 38.5771 27.897L39.1338 28.7905C39.0557 28.9907 38.9482 29.1982 38.8115 29.4131C38.6797 29.6279 38.5112 29.8306 38.3062 30.021C38.1011 30.2065 37.8545 30.3604 37.5664 30.4824C37.2783 30.5996 36.9365 30.6582 36.541 30.6582C36.0381 30.6582 35.5815 30.5581 35.1714 30.3579C34.7661 30.1528 34.4438 29.8721 34.2046 29.5156C33.9702 29.1543 33.853 28.7441 33.853 28.2852C33.853 27.8701 33.9312 27.5015 34.0874 27.1792C34.2437 26.8569 34.4731 26.5859 34.7759 26.3662C35.0835 26.1416 35.4668 25.9731 35.9258 25.8608C36.3848 25.7437 36.917 25.6851 37.5225 25.6851H38.7456ZM44.3267 24.3154V30.5117H42.2173V22.5869H44.2021L44.3267 24.3154ZM46.7144 22.5356L46.6777 24.4912C46.5752 24.4766 46.4507 24.4644 46.3042 24.4546C46.1626 24.4399 46.0332 24.4326 45.916 24.4326C45.6182 24.4326 45.3594 24.4717 45.1396 24.5498C44.9248 24.623 44.7441 24.7329 44.5977 24.8794C44.4561 25.0259 44.3486 25.2041 44.2754 25.4141C44.207 25.624 44.168 25.8633 44.1582 26.1318L43.7334 26C43.7334 25.4873 43.7847 25.0161 43.8872 24.5864C43.9897 24.1519 44.1387 23.7734 44.334 23.4512C44.5342 23.1289 44.7783 22.8799 45.0664 22.7041C45.3545 22.5283 45.6841 22.4404 46.0552 22.4404C46.1724 22.4404 46.292 22.4502 46.4141 22.4697C46.5361 22.4844 46.6362 22.5063 46.7144 22.5356ZM50.8379 29.0103C51.0967 29.0103 51.3262 28.9614 51.5264 28.8638C51.7266 28.7612 51.8828 28.6196 51.9951 28.439C52.1123 28.2534 52.1733 28.0361 52.1782 27.7871H54.1631C54.1582 28.3438 54.0093 28.8394 53.7163 29.2739C53.4233 29.7036 53.0303 30.043 52.5371 30.292C52.0439 30.5361 51.4922 30.6582 50.8818 30.6582C50.2666 30.6582 49.7295 30.5557 49.2705 30.3506C48.8164 30.1455 48.438 29.8623 48.1353 29.501C47.8325 29.1348 47.6055 28.71 47.4541 28.2266C47.3027 27.7383 47.2271 27.2158 47.2271 26.6592V26.4468C47.2271 25.8853 47.3027 25.3628 47.4541 24.8794C47.6055 24.3911 47.8325 23.9663 48.1353 23.605C48.438 23.2388 48.8164 22.9531 49.2705 22.748C49.7246 22.543 50.2568 22.4404 50.8672 22.4404C51.5166 22.4404 52.0854 22.5649 52.5737 22.814C53.0669 23.063 53.4526 23.4194 53.731 23.8833C54.0142 24.3423 54.1582 24.8867 54.1631 25.5166H52.1782C52.1733 25.2529 52.1172 25.0137 52.0098 24.7988C51.9072 24.584 51.7559 24.4131 51.5557 24.2861C51.3604 24.1543 51.1187 24.0884 50.8306 24.0884C50.5229 24.0884 50.2715 24.1543 50.0762 24.2861C49.8809 24.4131 49.7295 24.5889 49.6221 24.8135C49.5146 25.0332 49.439 25.2847 49.395 25.5679C49.356 25.8462 49.3364 26.1392 49.3364 26.4468V26.6592C49.3364 26.9668 49.356 27.2622 49.395 27.5454C49.4341 27.8286 49.5073 28.0801 49.6147 28.2998C49.7271 28.5195 49.8809 28.6929 50.0762 28.8198C50.2715 28.9468 50.5254 29.0103 50.8379 29.0103ZM57.4443 19.2617V30.5117H55.335V19.2617H57.4443ZM57.144 26.271H56.5654C56.5703 25.7192 56.6436 25.2114 56.7852 24.7476C56.9268 24.2788 57.1294 23.8735 57.3931 23.5317C57.6567 23.1851 57.9717 22.9165 58.3379 22.7261C58.709 22.5356 59.1191 22.4404 59.5684 22.4404C59.959 22.4404 60.313 22.4966 60.6304 22.6089C60.9526 22.7163 61.2285 22.8921 61.458 23.1362C61.6924 23.3755 61.873 23.6904 62 24.0811C62.127 24.4717 62.1904 24.9453 62.1904 25.502V30.5117H60.0664V25.4873C60.0664 25.1357 60.0151 24.8599 59.9126 24.6597C59.8149 24.4546 59.6709 24.3105 59.4805 24.2275C59.2949 24.1396 59.0654 24.0957 58.792 24.0957C58.4893 24.0957 58.2305 24.1519 58.0156 24.2642C57.8057 24.3765 57.6372 24.5327 57.5103 24.7329C57.3833 24.9282 57.2905 25.1577 57.2319 25.4214C57.1733 25.6851 57.144 25.9683 57.144 26.271Z" fill="white"/>
<g clip-path="url(#clip0_403_967)">
<path d="M78.5279 19.9722L79.1721 19.3218C79.4449 19.0464 79.8859 19.0464 80.1558 19.3218L85.7969 25.0142C86.0696 25.2896 86.0696 25.7349 85.7969 26.0073L80.1558 31.7026C79.883 31.978 79.442 31.978 79.1721 31.7026L78.5279 31.0522C78.2522 30.7739 78.258 30.3198 78.5395 30.0474L82.0362 26.6841H73.6964C73.3105 26.6841 73 26.3706 73 25.981V25.0435C73 24.6538 73.3105 24.3403 73.6964 24.3403H82.0362L78.5395 20.9771C78.2551 20.7046 78.2493 20.2505 78.5279 19.9722Z" fill="white"/>
</g>
<defs>
<clipPath id="clip0_403_967">
<rect width="13" height="15" fill="white" transform="translate(73 18.0117)"/>
</clipPath>
</defs>
</svg>
