<svg width="14" height="14" viewBox="0 0 14 14" fill="none" xmlns="http://www.w3.org/2000/svg">
<g clip-path="url(#clip0_10_2725)">
<path d="M12.6533 9.86886V1.57257C12.6533 1.24418 12.3891 0.97998 12.0607 0.97998H3.96192C2.65328 0.97998 1.59155 2.04171 1.59155 3.35035V11.2516C1.59155 12.5602 2.65328 13.6219 3.96192 13.6219H12.0607C12.3891 13.6219 12.6533 13.3577 12.6533 13.0293V12.6343C12.6533 12.4491 12.5668 12.2812 12.4335 12.1726C12.3298 11.7923 12.3298 10.7084 12.4335 10.3281C12.5668 10.2219 12.6533 10.054 12.6533 9.86886ZM4.75204 4.28862C4.75204 4.20714 4.81871 4.14047 4.90019 4.14047H10.1348C10.2162 4.14047 10.2829 4.20714 10.2829 4.28862V4.78244C10.2829 4.86393 10.2162 4.93059 10.1348 4.93059H4.90019C4.81871 4.93059 4.75204 4.86393 4.75204 4.78244V4.28862ZM4.75204 5.86886C4.75204 5.78738 4.81871 5.72071 4.90019 5.72071H10.1348C10.2162 5.72071 10.2829 5.78738 10.2829 5.86886V6.36269C10.2829 6.44417 10.2162 6.51084 10.1348 6.51084H4.90019C4.81871 6.51084 4.75204 6.44417 4.75204 6.36269V5.86886ZM11.0088 12.0417H3.96192C3.52488 12.0417 3.1718 11.6886 3.1718 11.2516C3.1718 10.817 3.52735 10.4614 3.96192 10.4614H11.0088C10.9619 10.8837 10.9619 11.6195 11.0088 12.0417Z" fill="#9CA0AC"/>
</g>
<defs>
<clipPath id="clip0_10_2725">
<rect width="12.642" height="12.642" fill="white" transform="translate(0.802307 0.980957)"/>
</clipPath>
</defs>
</svg>
