<svg width="14" height="13" viewBox="0 0 14 13" fill="none" xmlns="http://www.w3.org/2000/svg">
<g clip-path="url(#clip0_10_2763)">
<path d="M13.444 6.62127C13.444 10.113 10.6137 12.9423 7.12298 12.9423C3.63225 12.9423 0.802002 10.113 0.802002 6.62127C0.802002 3.13156 3.63225 0.300293 7.12298 0.300293C10.6137 0.300293 13.444 3.13156 13.444 6.62127ZM7.2926 2.39029C5.90359 2.39029 5.01769 2.97542 4.32202 4.01535C4.2319 4.15007 4.26205 4.33178 4.39122 4.42973L5.27562 5.10031C5.40829 5.20091 5.5973 5.17698 5.70038 5.04623C6.15569 4.46872 6.46789 4.13384 7.16091 4.13384C7.6816 4.13384 8.32565 4.46895 8.32565 4.97387C8.32565 5.35557 8.01054 5.5516 7.49643 5.83984C6.89685 6.17595 6.10347 6.59428 6.10347 7.64078V7.74274C6.10347 7.91164 6.24041 8.04859 6.40932 8.04859H7.83664C8.00555 8.04859 8.14249 7.91164 8.14249 7.74274V7.70876C8.14249 6.98333 10.2627 6.95312 10.2627 4.99005C10.2627 3.51171 8.72925 2.39029 7.2926 2.39029ZM7.12298 8.71127C6.47648 8.71127 5.95054 9.23721 5.95054 9.88371C5.95054 10.5302 6.47648 11.0562 7.12298 11.0562C7.76948 11.0562 8.29542 10.5302 8.29542 9.88371C8.29542 9.23721 7.76948 8.71127 7.12298 8.71127Z" fill="#9CA0AC"/>
</g>
<defs>
<clipPath id="clip0_10_2763">
<rect width="12.642" height="12.642" fill="white" transform="translate(0.802307 0.299316)"/>
</clipPath>
</defs>
</svg>
