<svg width="25" height="25" viewBox="0 0 25 25" fill="none" xmlns="http://www.w3.org/2000/svg">
<circle cx="12.6548" cy="12.5247" r="11.8518" fill="#0066FF"/>
<path d="M12.656 8.68796V9.28782C12.656 9.804 12.5595 9.88769 12.227 10.0691L9.1285 11.6456V11.7154L12.2129 13.264C12.5595 13.4453 12.656 13.5152 12.656 14.0453V14.7149C12.656 15.1334 12.5173 15.273 12.1576 15.0777L7.49588 12.5105C7.21959 12.3571 7.12213 12.2455 7.12213 11.9247V11.4782C7.12213 11.1573 7.21959 11.0317 7.49588 10.8784L12.1576 8.32514C12.5173 8.12988 12.656 8.26935 12.656 8.68796Z" fill="white"/>
<path d="M13.1511 10.895L17.7988 13.4481C18.0892 13.6016 18.1866 13.7132 18.1866 14.034V14.4805C18.1866 14.8153 18.0892 14.9269 17.7988 15.0804L13.1511 17.6335C12.7774 17.8288 12.6528 17.6894 12.6528 17.2708V16.6709C12.6528 16.1547 12.7492 16.0709 13.0818 15.9036L16.1802 14.327V14.2433L13.0958 12.6947C12.7492 12.5273 12.6528 12.4435 12.6528 11.9134V11.2437C12.6528 10.8251 12.7774 10.6857 13.1511 10.895Z" fill="white"/>
</svg>
