<svg width="14" height="13" viewBox="0 0 14 13" fill="none" xmlns="http://www.w3.org/2000/svg">
<g clip-path="url(#clip0_10_2754)">
<path d="M13.3825 4.88419L12.1332 1.13605C11.9727 0.652097 11.5208 0.326172 11.0097 0.326172H7.51835V5.06691H13.4122C13.4023 5.00518 13.4023 4.94345 13.3825 4.88419ZM6.72823 0.326172H3.23687C2.72576 0.326172 2.27391 0.652097 2.11342 1.13605L0.864035 4.88419C0.844282 4.94345 0.844282 5.00518 0.834406 5.06691H6.72823V0.326172ZM0.802307 5.85703V11.7829C0.802307 12.4373 1.33317 12.9681 1.98749 12.9681H12.2591C12.9134 12.9681 13.4443 12.4373 13.4443 11.7829V5.85703H0.802307Z" fill="#9CA0AC"/>
</g>
<defs>
<clipPath id="clip0_10_2754">
<rect width="12.642" height="12.642" fill="white" transform="translate(0.802307 0.326172)"/>
</clipPath>
</defs>
</svg>
