<svg width="14" height="14" viewBox="0 0 14 14" fill="none" xmlns="http://www.w3.org/2000/svg">
<g clip-path="url(#clip0_10_2743)">
<path d="M4.59453 7.1044C5.81724 7.1044 6.80687 6.07621 6.80687 4.80586C6.80687 3.53551 5.81724 2.50732 4.59453 2.50732C3.37181 2.50732 2.38219 3.53551 2.38219 4.80586C2.38219 6.07621 3.37181 7.1044 4.59453 7.1044ZM6.11156 7.76112H5.94761C5.53675 7.96635 5.08045 8.08949 4.59453 8.08949C4.1086 8.08949 3.65428 7.96635 3.24144 7.76112H3.07749C1.8212 7.76112 0.801941 8.82009 0.801941 10.1253V10.7164C0.801941 11.2602 1.22663 11.7015 1.75009 11.7015H7.43897C7.96242 11.7015 8.38712 11.2602 8.38712 10.7164V10.1253C8.38712 8.82009 7.36786 7.76112 6.11156 7.76112ZM10.2834 7.1044C11.3303 7.1044 12.1797 6.22193 12.1797 5.13422C12.1797 4.04652 11.3303 3.16405 10.2834 3.16405C9.2365 3.16405 8.38712 4.04652 8.38712 5.13422C8.38712 6.22193 9.2365 7.1044 10.2834 7.1044ZM11.2316 7.76112H11.1565C10.8819 7.85963 10.5916 7.92531 10.2834 7.92531C9.97526 7.92531 9.68489 7.85963 9.41032 7.76112H9.33526C8.9323 7.76112 8.56094 7.88221 8.23502 8.07717C8.71699 8.61692 9.01921 9.33316 9.01921 10.1253V10.9134C9.01921 10.9586 9.00934 11.0017 9.00736 11.0448H12.4958C13.0192 11.0448 13.4439 10.6035 13.4439 10.0597C13.4439 8.78931 12.4543 7.76112 11.2316 7.76112Z" fill="#9CA0AC"/>
</g>
<defs>
<clipPath id="clip0_10_2743">
<rect width="12.642" height="12.642" fill="white" transform="translate(0.802307 0.783203)"/>
</clipPath>
</defs>
</svg>
