<svg width="14" height="14" viewBox="0 0 14 14" fill="none" xmlns="http://www.w3.org/2000/svg">
<g clip-path="url(#clip0_10_2713)">
<path d="M8.11057 1.2124H12.8513C13.1786 1.2124 13.4439 1.47771 13.4439 1.80499V5.75561C13.4439 6.08289 13.1786 6.3482 12.8513 6.3482H8.11057C7.78329 6.3482 7.51798 6.08289 7.51798 5.75561V1.80499C7.51798 1.47771 7.78329 1.2124 8.11057 1.2124ZM6.13527 1.2124H1.39453C1.06725 1.2124 0.801941 1.47771 0.801941 1.80499V5.75561C0.801941 6.08289 1.06725 6.3482 1.39453 6.3482H6.13527C6.46255 6.3482 6.72786 6.08289 6.72786 5.75561V1.80499C6.72786 1.47771 6.46255 1.2124 6.13527 1.2124ZM0.801941 7.73091V11.6815C0.801941 12.0088 1.06725 12.2741 1.39453 12.2741H6.13527C6.46255 12.2741 6.72786 12.0088 6.72786 11.6815V7.73091C6.72786 7.40363 6.46255 7.13832 6.13527 7.13832H1.39453C1.06725 7.13832 0.801941 7.40363 0.801941 7.73091ZM8.11057 12.2741H12.8513C13.1786 12.2741 13.4439 12.0088 13.4439 11.6815V7.73091C13.4439 7.40363 13.1786 7.13832 12.8513 7.13832H8.11057C7.78329 7.13832 7.51798 7.40363 7.51798 7.73091V11.6815C7.51798 12.0088 7.78329 12.2741 8.11057 12.2741Z" fill="#9CA0AC"/>
</g>
<defs>
<clipPath id="clip0_10_2713">
<rect width="12.642" height="12.642" fill="white" transform="translate(0.802307 0.425293)"/>
</clipPath>
</defs>
</svg>
